<svg width="60" height="31" viewBox="0 0 60 31" fill="none" xmlns="http://www.w3.org/2000/svg">
<rect width="60" height="31" fill="#3B71CA"/>
<g clip-path="url(#clip0_3908_554)">
<path d="M33.75 15.375C33.75 16.4508 33.4008 17.4445 32.8125 18.2508L35.7797 21.2203C36.0727 21.5133 36.0727 21.9891 35.7797 22.282C35.4867 22.575 35.0109 22.575 34.718 22.282L31.7508 19.3125C30.9445 19.9031 29.9508 20.25 28.875 20.25C26.182 20.25 24 18.068 24 15.375C24 12.682 26.182 10.5 28.875 10.5C31.568 10.5 33.75 12.682 33.75 15.375ZM28.875 18.75C29.3182 18.75 29.7571 18.6627 30.1666 18.4931C30.576 18.3235 30.9481 18.0749 31.2615 17.7615C31.5749 17.4481 31.8235 17.076 31.9931 16.6666C32.1627 16.2571 32.25 15.8182 32.25 15.375C32.25 14.9318 32.1627 14.4929 31.9931 14.0834C31.8235 13.674 31.5749 13.3019 31.2615 12.9885C30.9481 12.6751 30.576 12.4265 30.1666 12.2569C29.7571 12.0873 29.3182 12 28.875 12C28.4318 12 27.9929 12.0873 27.5834 12.2569C27.174 12.4265 26.8019 12.6751 26.4885 12.9885C26.1751 13.3019 25.9265 13.674 25.7569 14.0834C25.5873 14.4929 25.5 14.9318 25.5 15.375C25.5 15.8182 25.5873 16.2571 25.7569 16.6666C25.9265 17.076 26.1751 17.4481 26.4885 17.7615C26.8019 18.0749 27.174 18.3235 27.5834 18.4931C27.9929 18.6627 28.4318 18.75 28.875 18.75Z" fill="white"/>
</g>
<defs>
<clipPath id="clip0_3908_554">
<rect width="12" height="12" fill="white" transform="translate(24 10.5)"/>
</clipPath>
</defs>
</svg>