<svg width="64" height="64" viewBox="0 0 64 64" fill="none" xmlns="http://www.w3.org/2000/svg">
<path d="M31.8842 0L19.2361 6.52708L31.8842 13.0542L44.5323 6.52708L31.8842 0ZM18.4648 7.49953V25.362L31.3276 32V14.1376L18.4648 7.49953ZM45.3036 7.49953L32.4408 14.1375V32L45.3036 25.362V7.49953Z" fill="white"/>
<path d="M13.4194 32L0.771266 38.5271L13.4194 45.0542L26.0674 38.5271L13.4194 32ZM0 39.4995V57.362L12.8628 64V46.1376L0 39.4995ZM26.8387 39.4995L13.9759 46.1375V64L26.8387 57.362V39.4995Z" fill="white"/>
<path d="M50.5815 32L37.9334 38.5271L50.5815 45.0542L63.2295 38.5271L50.5815 32ZM37.1621 39.4995V57.362L50.0249 64V46.1376L37.1621 39.4995ZM64.0008 39.4995L51.138 46.1375V64L64.0008 57.362V39.4995Z" fill="white"/>
</svg>
