<svg width="64" height="64" viewBox="0 0 64 64" fill="none" xmlns="http://www.w3.org/2000/svg">
<path d="M32.0289 0L17.2498 7.12826L32.0289 14.2566L46.8079 7.12826L32.0289 0ZM16.3486 8.19028V27.698L31.3786 34.9474V15.4397L16.3486 8.19028ZM47.7092 8.19028L32.6792 15.4396V34.9474L47.7092 27.698V8.19028Z" fill="white"/>
<path d="M15.6803 29.0527L0.901209 36.181L15.6803 43.3093L30.4593 36.181L15.6803 29.0527ZM0 37.243V56.7507L15.0299 64.0001V44.4925L0 37.243ZM31.3605 37.243L16.3306 44.4924V64.0001L31.3605 56.7507V37.243Z" fill="white"/>
<path d="M48.3199 29.0527L33.5409 36.181L48.3199 43.3093L63.099 36.181L48.3199 29.0527ZM32.6396 37.243V56.7507L47.6696 64.0001V44.4925L32.6396 37.243ZM64.0002 37.243L48.9702 44.4924V64.0001L64.0002 56.7507V37.243Z" fill="white"/>
</svg>
