<svg width="63" height="73" viewBox="0 0 63 73" fill="none" xmlns="http://www.w3.org/2000/svg">
<path d="M27.5625 73C19.6219 72.0108 13.043 68.5323 7.82578 62.5644C2.60859 56.5964 0 49.5899 0 41.5447C0 37.1924 0.853125 33.0215 2.55938 29.0318C4.26563 25.0422 6.69375 21.5637 9.84375 18.5962L15.4547 24.2344C12.9609 26.4765 11.0742 29.0813 9.79453 32.0488C8.51484 35.0163 7.875 38.1816 7.875 41.5447C7.875 47.3478 9.7125 52.4749 13.3875 56.9262C17.0625 61.3774 21.7875 64.0976 27.5625 65.0867V73ZM35.4375 73V65.0867C41.1469 64.0316 45.8555 61.2949 49.5633 56.8767C53.2711 52.4584 55.125 47.3478 55.125 41.5447C55.125 34.9503 52.8281 29.3451 48.2344 24.729C43.6406 20.1129 38.0625 17.8049 31.5 17.8049H31.2047L35.5359 22.1572L30.0234 27.6965L16.2422 13.8482L30.0234 0L35.5359 5.5393L31.2047 9.8916H31.5C40.2938 9.8916 47.7422 12.958 53.8453 19.0908C59.9484 25.2236 63 32.7082 63 41.5447C63 49.5239 60.3914 56.4975 55.1742 62.4654C49.957 68.4334 43.3781 71.9449 35.4375 73Z" fill="white"/>
</svg>
